<?xml version="1.0" encoding="utf-8"?>
<svg version="1.1" xmlns:xlink="http://www.w3.org/1999/xlink" width="16px" height="16px" xmlns="http://www.w3.org/2000/svg">
  <g transform="matrix(1 0 0 1 -733 -14 )">
    <path d="M 733 14  L 749 14  L 749 30  L 733 30  L 733 14  " fill-rule="nonzero" fill="#cccccc" stroke="none" />
    <path d="M 734 15  L 748 15  L 748 29  L 734 29  L 734 15  " fill-rule="nonzero" fill="#ffffff" stroke="none" />
    <path d="M 742.52 18.8  C 741.848 18.8  741.32 18.272  741.32 17.6  C 741.32 16.928  741.848 16.4  742.52 16.4  C 743.192 16.4  743.72 16.928  743.72 17.6  C 743.72 18.272  743.192 18.8  742.52 18.8  " fill-rule="nonzero" fill="#cccccc" stroke="none" />
    <path d="M 735 29  L 735 21.85  L 738.25 18.6  L 742.8 21.2  L 745.4 20.55  L 748 21.2  L 748 29  L 735 29  " fill-rule="nonzero" fill="#169bd5" stroke="none" />
  </g>
</svg>